<?xml version="1.0" standalone="no"?><!DOCTYPE svg PUBLIC "-//W3C//DTD SVG 1.1//EN" "http://www.w3.org/Graphics/SVG/1.1/DTD/svg11.dtd"><svg t="1673707738298" class="icon" viewBox="0 0 1024 1024" version="1.1" xmlns="http://www.w3.org/2000/svg" p-id="4158" data-darkreader-inline-fill="" xmlns:xlink="http://www.w3.org/1999/xlink" width="128" height="128"><path d="M847.6 256 768 256 768 128 256 128l0 128L176.4 256C120.6 256 64 289.8 64 365.2l0 247.6c0 76 56.6 123.2 112.4 123.2 0 0 60.8 0 79.6 0l0 224 10 0 22 0 448 0 16 0 16 0L768 736c20.6 0 79.6 0 79.6 0 55.8 0 112.4-45.2 112.4-107.2L960 365.2C960 293.8 903.6 256 847.6 256zM736 928 288 928 288 576l448 0L736 928zM736 256 288 256 288 160l448 0L736 256zM832 384l-34 0 0-32 34 0L832 384z" p-id="4159"></path><path d="M320 640l384 0 0 32-384 0 0-32Z" p-id="4160"></path><path d="M320 736l384 0 0 32-384 0 0-32Z" p-id="4161"></path><path d="M320 832l384 0 0 32-384 0 0-32Z" p-id="4162"></path></svg>