<?xml version="1.0" standalone="no"?><!DOCTYPE svg PUBLIC "-//W3C//DTD SVG 1.1//EN" "http://www.w3.org/Graphics/SVG/1.1/DTD/svg11.dtd"><svg t="1673877082146" class="icon" viewBox="0 0 1024 1024" version="1.1" xmlns="http://www.w3.org/2000/svg" p-id="6057" xmlns:xlink="http://www.w3.org/1999/xlink" width="128" height="128"><path d="M872.030331 178.651866 759.002069 178.651866 759.002069 61.959144 156.212296 61.959144l0 778.066775L269.225209 840.025918l0 116.682489 602.805122 0c0 0-0.984421-25.036209-0.984421-55.920614L872.030331 178.651866 872.030331 178.651866zM193.90578 801.11777 193.90578 100.867292l527.437597 0 0 700.251501L193.90578 801.118793 193.90578 801.11777zM834.3655 917.825842 306.909483 917.825842l0-77.799924 452.092585 0 0-622.466927 75.363432 0L834.3655 917.825842 834.3655 917.825842zM382.248356 295.369148l263.730567 0 0-77.810157L382.248356 217.558991 382.248356 295.369148 382.248356 295.369148zM306.909483 684.406628l339.069439 0 0-38.907125L306.909483 645.499503 306.909483 684.406628 306.909483 684.406628zM306.909483 567.688323l339.069439 0 0-38.910195L306.909483 528.778128 306.909483 567.688323 306.909483 567.688323zM306.909483 450.989461l339.069439 0 0-38.903032L306.909483 412.086429 306.909483 450.989461 306.909483 450.989461zM306.909483 450.989461" fill="#000000" p-id="6058"></path></svg>