<?xml version="1.0" standalone="no"?><!DOCTYPE svg PUBLIC "-//W3C//DTD SVG 1.1//EN" "http://www.w3.org/Graphics/SVG/1.1/DTD/svg11.dtd"><svg t="1673704375550" class="icon" viewBox="0 0 1024 1024" version="1.1" xmlns="http://www.w3.org/2000/svg" p-id="8269" data-darkreader-inline-fill="" xmlns:xlink="http://www.w3.org/1999/xlink" width="128" height="128"><path d="M416 277.333333A96 96 0 0 1 512 373.333333l-0.042667 32.64 4.138667-0.426666 6.570667-0.213334c33.109333 0 62.336 16.810667 79.573333 42.325334l2.261333 3.584 5.461334-1.28c4.181333-0.853333 8.448-1.450667 12.8-1.706667l6.570666-0.256c33.109333 0 62.336 16.768 79.573334 42.325333l2.261333 3.584 5.461333-1.28c4.181333-0.853333 8.448-1.450667 12.8-1.706666l6.570667-0.256a96 96 0 0 1 96 96v167.850666c0 32.512-8.704 63.232-26.624 88.661334-35.84 50.858667-77.994667 92.245333-127.232 113.365333-87.637333 37.546667-166.016 38.314667-266.453333 0.768-95.872-35.84-178.773333-134.826667-249.301334-261.504-28.288-50.773333-14.336-113.706667 31.146667-150.101333a124.586667 124.586667 0 0 1 126.421333-17.365334V373.333333a96 96 0 0 1 89.472-95.786666L416 277.333333z m0 85.333334a10.666667 10.666667 0 0 0-10.666667 10.666666v245.333334c0 37.973333-45.994667 57.045333-72.832 30.165333l-33.664-33.621333a39.04 39.04 0 0 0-51.968-2.901334c-13.653333 10.922667-17.493333 28.373333-9.941333 41.984 61.184 109.866667 133.845333 196.608 204.672 223.061334 80.213333 30.037333 135.893333 29.482667 202.922667 0.768 31.445333-13.482667 63.573333-45.056 91.136-84.138667 7.168-10.197333 11.008-23.722667 11.008-39.466667V586.666667a10.666667 10.666667 0 1 0-21.333334 0c0 56.874667-85.333333 56.874667-85.333333 0v-42.666667a10.666667 10.666667 0 1 0-21.333333 0c0 56.874667-85.333333 56.874667-85.333334 0v-42.666667a10.666667 10.666667 0 0 0-21.333333 0c0 56.874667-85.333333 56.874667-85.333333 0v-128a10.666667 10.666667 0 0 0-10.666667-10.666666zM448 42.666667a234.709333 234.709333 0 0 1 231.850667 198.4l15.317333-15.232a42.666667 42.666667 0 0 1 56.32-3.541334l4.010667 3.541334a42.666667 42.666667 0 0 1 3.541333 56.32l-3.541333 4.010666-85.333334 85.333334a42.666667 42.666667 0 0 1-56.32 3.541333l-4.053333-3.541333-85.333333-85.333334a42.666667 42.666667 0 0 1 56.32-63.872l4.053333 3.541334 5.12 5.12A149.376 149.376 0 0 0 298.666667 277.333333a42.666667 42.666667 0 1 1-85.333334 0A234.666667 234.666667 0 0 1 448 42.666667z" fill="#000000" fill-opacity=".85" p-id="8270" data-darkreader-inline-fill="" style="--darkreader-inline-fill:#404040;"></path><path d="M416 362.666667a10.666667 10.666667 0 0 0-10.666667 10.666666v245.333334c0 37.973333-45.994667 57.045333-72.832 30.165333l-33.664-33.621333a39.04 39.04 0 0 0-51.968-2.901334c-13.653333 10.922667-17.493333 28.373333-9.941333 41.984 61.184 109.866667 133.845333 196.608 204.672 223.061334 80.213333 30.037333 135.893333 29.482667 202.922667 0.768 31.445333-13.482667 63.573333-45.056 91.136-84.138667 7.168-10.197333 11.008-23.722667 11.008-39.466667V586.666667a10.666667 10.666667 0 1 0-21.333334 0c0 56.874667-85.333333 56.874667-85.333333 0v-42.666667a10.666667 10.666667 0 1 0-21.333333 0c0 56.874667-85.333333 56.874667-85.333334 0v-42.666667a10.666667 10.666667 0 0 0-21.333333 0c0 56.874667-85.333333 56.874667-85.333333 0v-128a10.666667 10.666667 0 0 0-10.666667-10.666666z" fill="#000000" fill-opacity=".85" p-id="8271" data-darkreader-inline-fill="" style="--darkreader-inline-fill:#404040;"></path></svg>