<?xml version="1.0" standalone="no"?><!DOCTYPE svg PUBLIC "-//W3C//DTD SVG 1.1//EN" "http://www.w3.org/Graphics/SVG/1.1/DTD/svg11.dtd"><svg t="1673704317475" class="icon" viewBox="0 0 1024 1024" version="1.1" xmlns="http://www.w3.org/2000/svg" p-id="7955" data-darkreader-inline-fill="" xmlns:xlink="http://www.w3.org/1999/xlink" width="128" height="128"><path d="M264.832 97.834667a42.666667 42.666667 0 0 0-60.330667 0l-106.666666 106.666666a42.666667 42.666667 0 0 0 0 60.330667L345.002667 512l-247.168 247.168a42.666667 42.666667 0 0 0 0 60.330667l106.666666 106.666666a42.666667 42.666667 0 0 0 60.330667 0L512 678.997333l247.168 247.168a42.666667 42.666667 0 0 0 60.330667 0l106.666666-106.666666a42.666667 42.666667 0 0 0 0-60.330667L678.997333 512l247.168-247.168a42.666667 42.666667 0 0 0 0-60.330667l-106.666666-106.666666a42.666667 42.666667 0 0 0-60.330667 0L512 345.002667 264.832 97.834667z" fill="#000000" fill-opacity=".85" p-id="7956" data-darkreader-inline-fill="" style="--darkreader-inline-fill:#404040;"></path></svg>