<?xml version="1.0" standalone="no"?><!DOCTYPE svg PUBLIC "-//W3C//DTD SVG 1.1//EN" "http://www.w3.org/Graphics/SVG/1.1/DTD/svg11.dtd"><svg t="1670501923828" class="icon" viewBox="0 0 1024 1024" version="1.1" xmlns="http://www.w3.org/2000/svg" p-id="14580" data-darkreader-inline-fill="" xmlns:xlink="http://www.w3.org/1999/xlink" width="200" height="200"><path d="M635.94496 445.76768c80.85504 10.6496 147.82464-62.21824 137.05216-147.41504-6.92224-58.94144-50.83136-105.63584-105.472-113.00864-80.85504-10.6496-148.60288 61.39904-137.8304 147.41504 6.92224 58.9824 51.6096 105.63584 106.25024 113.00864z m-270.99136 0c80.85504 10.6496 147.82464-62.21824 137.05216-147.41504-6.92224-58.94144-51.56864-105.63584-106.25024-113.00864-80.85504-10.6496-148.60288 61.39904-137.8304 147.41504 7.70048 58.9824 51.56864 105.63584 107.02848 113.00864z m10.77248 66.3552c-90.84928 0-273.32608 49.9712-273.32608 149.05344V823.296c0 9.0112 6.92224 16.384 15.40096 16.384H633.6512c8.47872 0 15.40096-7.3728 15.40096-16.384v-162.16064c0-99.08224-182.4768-149.01248-273.32608-149.01248z m267.14112 0c-11.55072 0-24.65792 0.8192-38.5024 2.4576 46.20288 35.2256 78.52032 83.51744 78.52032 146.59584V823.296c0 9.0112 6.92224 16.384 15.40096 16.384h207.872c8.47872 0 15.40096-7.3728 15.40096-16.384v-162.16064c0.04096-99.08224-185.50784-149.01248-278.69184-149.01248z m43.13088 0" fill="#BEC9D7" p-id="14581" data-darkreader-inline-fill="" style="--darkreader-inline-fill:#555b63;"></path></svg>