<?xml version="1.0" standalone="no"?><!DOCTYPE svg PUBLIC "-//W3C//DTD SVG 1.1//EN" "http://www.w3.org/Graphics/SVG/1.1/DTD/svg11.dtd"><svg t="1670501685942" class="icon" viewBox="0 0 1024 1024" version="1.1" xmlns="http://www.w3.org/2000/svg" p-id="10309" data-darkreader-inline-fill="" xmlns:xlink="http://www.w3.org/1999/xlink" width="200" height="200"><path d="M763.149474 95.663158h-24.791579a26.947368 26.947368 0 0 0-26.947369 26.947368 26.947368 26.947368 0 0 0 26.947369 26.947369h25.330526a80.842105 80.842105 0 0 1 80.842105 80.842105V835.368421a80.842105 80.842105 0 0 1-80.842105 80.842105H261.389474a80.842105 80.842105 0 0 1-80.842106-80.842105V230.938947a80.842105 80.842105 0 0 1 80.842106-80.842105h24.252631a26.947368 26.947368 0 0 0 0-53.894737h-24.252631a134.736842 134.736842 0 0 0-134.736842 134.736842V835.368421a134.736842 134.736842 0 0 0 134.736842 134.736842h501.221052a134.736842 134.736842 0 0 0 134.736842-134.736842V230.938947a134.736842 134.736842 0 0 0-134.197894-135.275789z" p-id="10310"></path><path d="M436.277895 196.176842h151.44421a73.835789 73.835789 0 0 0 0-147.402105h-151.44421a73.835789 73.835789 0 0 0 0 147.402105z m0-93.507368h151.44421a19.941053 19.941053 0 0 1 0 39.612631h-151.44421a19.941053 19.941053 0 0 1 0-39.612631zM718.686316 308.277895H305.313684a26.947368 26.947368 0 0 0 0 53.894737h413.372632a26.947368 26.947368 0 0 0 0-53.894737zM718.686316 452.985263H305.313684a26.947368 26.947368 0 0 0 0 53.894737h413.372632a26.947368 26.947368 0 0 0 0-53.894737zM718.686316 597.692632H305.313684a26.947368 26.947368 0 1 0 0 53.894736h413.372632a26.947368 26.947368 0 0 0 0-53.894736zM718.686316 742.4H305.313684a26.947368 26.947368 0 0 0 0 53.894737h413.372632a26.947368 26.947368 0 0 0 0-53.894737z" p-id="10311"></path></svg>